<?xml version="1.0" encoding="UTF-8"?>
<svg version="1.1" xmlns="http://www.w3.org/2000/svg" width="55" height="50" viewBox="10 8 35 32">
<defs>
  <filter id="smooth">
    <feGaussianBlur in="SourceGraphic" stdDeviation="0.3" />
  </filter>
</defs>
<!-- Forma principal rosa -->
<path d="M0 0 C2.625 0.375 2.625 0.375 4.9375 1.9375 C7.2049126 5.21265153 6.83471711 7.46028056 6.625 11.375 C6.8725 12.365 6.8725 12.365 7.125 13.375 C7.94317415 16.6476966 8.08973707 19.00565625 7.625 22.375 C4.55783791 26.16791312 0.39132036 29.2665534 -4.375 30.375 C-11.2575944 31.01227726 -16.41354349 30.58882869 -21.96875 26.08203125 C-23.7792803 23.88424864 -24.00865017 22.1729329 -24.4375 19.375 C-24.98239044 15.88770117 -25.36130408 14.39554387 -27.375 11.375 C-27.16628205 8.59209398 -26.78944441 6.91302874 -25.078125 4.69140625 C-23.375 3.375 -23.375 3.375 -21.46484375 3.37109375 C-20.75457031 3.51675781 -20.04429688 3.66242187 -19.3125 3.8125 C-14.10558746 4.59780484 -9.38439582 3.9942943 -4.375 2.375 C-2.375 0.375 -2.375 0.375 0 0 Z " fill="#F872C9" transform="translate(37.375,9.625)"/>
<path d="M0 0 C2.625 0.375 2.625 0.375 4.9375 1.9375 C7.2049126 5.21265153 6.83471711 7.46028056 6.625 11.375 C6.8725 12.365 6.8725 12.365 7.125 13.375 C7.94317415 16.6476966 8.08973707 19.00565625 7.625 22.375 C4.91049908 25.80062369 1.89354289 27.96134471 -2.25 29.3125 C-2.95125 29.333125 -3.6525 29.35375 -4.375 29.375 C-5.375 28.375 -5.375 28.375 -5.48852539 26.15014648 C-5.48328857 25.19180908 -5.47805176 24.23347168 -5.47265625 23.24609375 C-5.46943359 22.21162109 -5.46621094 21.17714844 -5.46289062 20.11132812 C-5.45451172 19.02271484 -5.44613281 17.93410156 -5.4375 16.8125 C-5.43298828 15.72001953 -5.42847656 14.62753906 -5.42382812 13.50195312 C-5.41199826 10.79291505 -5.39551543 8.08398401 -5.375 5.375 C-8.345 4.88 -8.345 4.88 -11.375 4.375 C-11.375 4.045 -11.375 3.715 -11.375 3.375 C-10.26125 3.25125 -9.1475 3.1275 -8 3 C-4.28165812 2.35890657 -3.43384721 0.5421864 0 0 Z " fill="#7A69F4" transform="translate(37.375,9.625)"/>
<path d="M0 0 C3 0.8125 3 0.8125 6 2.8125 C6.34057617 5.15087891 6.34057617 5.15087891 6.29296875 8.0390625 C6.28330078 9.0703125 6.27363281 10.1015625 6.26367188 11.1640625 C6.23853516 12.24429687 6.21339844 13.32453125 6.1875 14.4375 C6.17396484 15.52546875 6.16042969 16.6134375 6.14648438 17.734375 C6.11104754 20.42757409 6.06164331 23.11979374 6 25.8125 C1.65105663 25.0577247 -0.37128455 24.52895977 -3 20.8125 C-3.66348439 18.26705675 -4.12435824 15.7543548 -4.5078125 13.15234375 C-4.90264534 10.55602283 -4.90264534 10.55602283 -7 7.8125 C-6.7925099 5.04596538 -6.29721306 3.28178377 -4.8125 0.9375 C-3 -0.1875 -3 -0.1875 0 0 Z " fill="#6EE4FF" transform="translate(17,13.1875)"/>
<path d="M0 0 C2.625 0.375 2.625 0.375 4.9375 2.0625 C6.91044288 4.76616247 6.98837162 6.10465541 6.625 9.375 C5.635 9.375 4.645 9.375 3.625 9.375 C3.295 7.725 2.965 6.075 2.625 4.375 C1.635 4.045 0.645 3.715 -0.375 3.375 C-0.96570014 5.32103274 -0.96570014 5.32103274 -1.375 7.375 C-1.045 7.705 -0.715 8.035 -0.375 8.375 C-0.33419217 10.37458364 -0.33245644 12.37545254 -0.375 14.375 C-1.365 14.705 -2.355 15.035 -3.375 15.375 C-3.375 16.695 -3.375 18.015 -3.375 19.375 C-2.385 19.705 -1.395 20.035 -0.375 20.375 C-0.25125 21.15875 -0.1275 21.9425 0 22.75 C0.41617993 25.51557822 0.41617993 25.51557822 2.625 27.375 C0.875 28.4375 0.875 28.4375 -1.375 29.375 C-2.695 29.045 -4.015 28.715 -5.375 28.375 C-5.375 20.785 -5.375 13.195 -5.375 5.375 C-8.345 4.88 -8.345 4.88 -11.375 4.375 C-11.375 4.045 -11.375 3.715 -11.375 3.375 C-10.26125 3.25125 -9.1475 3.1275 -8 3 C-4.28165812 2.35890657 -3.43384721 0.5421864 0 0 Z " fill="#C67AFA" transform="translate(37.375,9.625)"/>
<path d="M0 0 C1.98 0.495 1.98 0.495 4 1 C4 7.93 4 14.86 4 22 C2.35 22.33 0.7 22.66 -1 23 C-1.02887512 19.35418313 -1.04675585 15.70839537 -1.0625 12.0625 C-1.07087891 11.02158203 -1.07925781 9.98066406 -1.08789062 8.90820312 C-1.09272461 7.42416992 -1.09272461 7.42416992 -1.09765625 5.91015625 C-1.10289307 4.99371338 -1.10812988 4.07727051 -1.11352539 3.13305664 C-1 1 -1 1 0 0 Z " fill="#FC7D6A" transform="translate(23,15)"/>
<path d="M0 0 C2.475 0.495 2.475 0.495 5 1 C5.12375 1.78375 5.2475 2.5675 5.375 3.375 C5.79117993 6.14057822 5.79117993 6.14057822 8 8 C6.25 9.0625 6.25 9.0625 4 10 C2.68 9.67 1.36 9.34 0 9 C0 6.03 0 3.06 0 0 Z " fill="#C47CF8" transform="translate(32,29)"/>
<path d="M0 0 C0.66 0 1.32 0 2 0 C2 0.66 2 1.32 2 2 C2.99 2.33 3.98 2.66 5 3 C4.5359375 3.7734375 4.5359375 3.7734375 4.0625 4.5625 C2.70940713 7.66665423 2.38640576 10.65115007 2 14 C1.01 14 0.02 14 -1 14 C-1.22226864 12.23086176 -1.42733873 10.45955629 -1.625 8.6875 C-1.74101562 7.70136719 -1.85703125 6.71523438 -1.9765625 5.69921875 C-2 3 -2 3 0 0 Z " fill="#4CDB92" transform="translate(15,16)"/>
<path d="M0 0 C0.86625 0.37125 0.86625 0.37125 1.75 0.75 C0.76 1.6471875 0.76 1.6471875 -0.25 2.5625 C-3.15454381 7.19161669 -2.58587245 11.42268974 -2.25 16.75 C-2.58 16.75 -2.91 16.75 -3.25 16.75 C-3.94847666 14.42174447 -4.61301391 12.0950525 -5.25 9.75 C-5.53875 8.698125 -5.8275 7.64625 -6.125 6.5625 C-6.25 3.75 -6.25 3.75 -4.5625 1.3125 C-2.25 -0.25 -2.25 -0.25 0 0 Z " fill="#B7F3CA" transform="translate(16.25,13.25)"/>
<path d="M0 0 C2.64 0.33 5.28 0.66 8 1 C7.67 3.97 7.34 6.94 7 10 C6.01 10.33 5.02 10.66 4 11 C3 8 3 8 4 5 C3.34 4.67 2.68 4.34 2 4 C2 3.01 2 2.02 2 1 C1.34 0.67 0.68 0.34 0 0 Z " fill="#8DE3EF" transform="translate(15,14)"/>
<path d="M0 0 C3.27034459 -0.36337162 4.60883753 -0.28544288 7.3125 1.6875 C9.28544288 4.39116247 9.36337162 5.72965541 9 9 C8.01 9 7.02 9 6 9 C5.67 7.35 5.34 5.7 5 4 C3.02 4.33 1.04 4.66 -1 5 C-0.67 3.35 -0.34 1.7 0 0 Z " fill="#CBAEE0" transform="translate(35,10)"/>
<path d="M0 0 C1.65 0 3.3 0 5 0 C5 2.31 5 4.62 5 7 C3.35 7.33 1.7 7.66 0 8 C0 5.36 0 2.72 0 0 Z " fill="#FD7D6A" transform="translate(22,30)"/>
<path d="M0 0 C0.33 0 0.66 0 1 0 C1.08636719 0.75925781 1.17273438 1.51851562 1.26171875 2.30078125 C1.90733107 8.52355836 1.90733107 8.52355836 5.625 13.1875 C6.40875 13.455625 7.1925 13.72375 8 14 C7.01 14.33 6.02 14.66 5 15 C0.65491412 12.57677903 0.65491412 12.57677903 -1 10 C-1.22103912 6.5475794 -0.72041264 3.37284099 0 0 Z " fill="#9FE8C7" transform="translate(15,24)"/>
<path d="M0 0 C0.66 0 1.32 0 2 0 C3.18082522 3.69007882 3.28527337 7.14880946 3 11 C2.01 11.66 1.02 12.32 0 13 C0 8.71 0 4.42 0 0 Z " fill="#F0A4AC" transform="translate(42,21)"/>
<path d="M0 0 C1.98 0.495 1.98 0.495 4 1 C3.67 2.65 3.34 4.3 3 6 C1.68 5.67 0.36 5.34 -1 5 C-0.67 3.35 -0.34 1.7 0 0 Z " fill="#E05C47" transform="translate(23,25)"/>
<path d="M0 0 C1.98 0.495 1.98 0.495 4 1 C3.67 2.65 3.34 4.3 3 6 C1.68 5.67 0.36 5.34 -1 5 C-0.67 3.35 -0.34 1.7 0 0 Z " fill="#9039C9" transform="translate(34,24)"/>

<!-- Sombra de profundidad en oreja verde izquierda (centrada en la oreja ~x:14-18, y:18-25) -->
<ellipse cx="16" cy="22" rx="3" ry="4" fill="#0d5c2d" opacity="0.5" filter="url(#smooth)"/>

<!-- Sombra de profundidad en oreja morada derecha (centrada en la oreja ~x:40-44, y:13-18) -->
<ellipse cx="41" cy="15" rx="2.5" ry="3.5" fill="#2d1a4d" opacity="0.5" filter="url(#smooth)"/>

<!-- Ojo izquierdo (sobre la barra naranja ~x:23-26, y:25-30) -->
<g>
  <ellipse cx="24.5" cy="27" rx="2.2" ry="3" fill="#1a1a2e"/>
  <ellipse cx="23.8" cy="25.8" rx="0.9" ry="1.2" fill="white" opacity="0.95"/>
  <circle cx="25.3" cy="27.8" r="0.5" fill="white" opacity="0.7"/>
</g>

<!-- Ojo derecho (sobre la barra morada ~x:34-37, y:25-30) -->
<g>
  <ellipse cx="35.5" cy="27" rx="2.2" ry="3" fill="#1a1a2e"/>
  <ellipse cx="34.8" cy="25.8" rx="0.9" ry="1.2" fill="white" opacity="0.95"/>
  <circle cx="36.3" cy="27.8" r="0.5" fill="white" opacity="0.7"/>
</g>

<!-- Boquita estilo gatito (forma de w invertida - sonrisa) -->
<g>
  <path d="M 28 32 Q 30 34 30 32 Q 30 34 32 32" 
        fill="none" 
        stroke="#1a1a2e" 
        stroke-width="0.8" 
        stroke-linecap="round"
        stroke-linejoin="round"
        opacity="0.7"/>
</g>
</svg>
